<svg id="visual" viewBox="0 0 900 600" width="900" height="600" xmlns="http://www.w3.org/2000/svg"
    xmlns:xlink="http://www.w3.org/1999/xlink" version="1.1">
    <rect x="0" y="0" width="900" height="600" fill="#e1e1e1"></rect>
    <path
        d="M 0 283 L 37.5 277 C 75 271 150 259 225 245 C 300 231 375 215 450 215.3 C 525 215.7 600 232.3 675 236.7 C 750 241 825 233 862.5 229 L 900 225 L 900 601 L 862.5 601 C 825 601 750 601 675 601 C 600 601 525 601 450 601 C 375 601 300 601 225 601 C 150 601 75 601 37.5 601 L 0 601 Z"
        fill="#e1e1e1"></path>
    <path
        d="M -747 461 L -657.7 475 C -568.5 488.9 -390 516.9 -211.5 521 C -33 525.3 145.5 505.8 324 500.4 C 502.5 494.7 681 503.3 859.5 506.8 C 1038 510.3 1216.5 509.1 1305.8 508.3 L 1395 507.8 L 1395 1028 L 1305.8 1028 C 1216.5 1028 1038 1028 859.5 1028 C 681 1028 502.5 1028 324 1028 C 145.5 1028 -33 1028 -211.5 1028 C -390 1028 -568.5 1028 -657.7 1028 L -747 1028 Z"
        fill="#40809b"></path>
    <path
        d="M -664 734.4 L -579.8 736.6 C -495.7 738.8 -327.3 743.2 -159 744.8 C 9.3 746 177.7 744.8 346 743.8 C 514.3 743.2 682.7 743.2 851 717 C 1019.3 690.8 1187.7 638.4 1271.8 612.2 L 1356 586 L 1356 1166 L 1271.8 1166 C 1187.7 1166 1019.3 1166 851 1166 C 682.7 1166 514.3 1166 346 1166 C 177.7 1166 9.3 1166 -159 1166 C -327.3 1166 -495.7 1166 -579.8 1166 L -664 1166 Z"
        fill="#123f64"></path>
    <path transform="matrix(-1,0,0,-1,1157,787)"
        d="M -266 724 L -190.3 728.9 C -114.6 733.4 36.8 743.2 188.3 747.4 C 339.7 751.7 491.1 750.6 642.5 748.9 C 793.9 746.9 945.3 744 1096.8 748.9 C 1248.2 753.5 1399.6 766 1475.3 772 L 1551 778.3 L 1551 887 L 1475.3 887 C 1399.6 887 1248.2 887 1096.8 887 C 945.3 887 793.9 887 642.5 887 C 491.1 887 339.7 887 188.3 887 C 36.8 887 -114.6 887 -190.3 887 L -266 887 Z"
        fill="#f48e26"></path>
</svg>