<svg id="visual" viewBox="0 0 900 600" width="900" height="600" xmlns="http://www.w3.org/2000/svg"
    xmlns:xlink="http://www.w3.org/1999/xlink" version="1.1">
    <rect x="0" y="0" width="900" height="600" fill="#e1e1e1"></rect>
    <path
        d="M 0 283 L 37.5 277 C 75 271 150 259 225 245 C 300 231 375 215 450 215.3 C 525 215.7 600 232.3 675 236.7 C 750 241 825 233 862.5 229 L 900 225 L 900 601 L 862.5 601 C 825 601 750 601 675 601 C 600 601 525 601 450 601 C 375 601 300 601 225 601 C 150 601 75 601 37.5 601 L 0 601 Z"
        fill="#e1e1e1"></path>
    <path
        d="M -662 415 L -572.7 422.2 C -483.5 429.3 -305 443.7 -126.5 445.8 C 52 448 230.5 438 409 435.2 C 587.5 432.3 766 436.7 944.5 438.5 C 1123 440.3 1301.5 439.7 1390.8 439.3 L 1480 439 L 1480 706 L 1390.8 706 C 1301.5 706 1123 706 944.5 706 C 766 706 587.5 706 409 706 C 230.5 706 52 706 -126.5 706 C -305 706 -483.5 706 -572.7 706 L -662 706 Z"
        fill="#40809b"></path>
    <path
        d="M -656 571.2 L -571.8 572.3 C -487.7 573.4 -319.3 575.6 -151 576.4 C 17.3 577 185.7 576.4 354 575.9 C 522.3 575.6 690.7 575.6 859 562.5 C 1027.3 549.4 1195.7 523.2 1279.8 510.1 L 1364 497 L 1364 787 L 1279.8 787 C 1195.7 787 1027.3 787 859 787 C 690.7 787 522.3 787 354 787 C 185.7 787 17.3 787 -151 787 C -319.3 787 -487.7 787 -571.8 787 L -656 787 Z"
        fill="#123f64"></path>
    <path transform="matrix(-1,0,0,-1,1157,787)"
        d="M -266 724 L -190.3 728.9 C -114.6 733.4 36.8 743.2 188.3 747.4 C 339.7 751.7 491.1 750.6 642.5 748.9 C 793.9 746.9 945.3 744 1096.8 748.9 C 1248.2 753.5 1399.6 766 1475.3 772 L 1551 778.3 L 1551 887 L 1475.3 887 C 1399.6 887 1248.2 887 1096.8 887 C 945.3 887 793.9 887 642.5 887 C 491.1 887 339.7 887 188.3 887 C 36.8 887 -114.6 887 -190.3 887 L -266 887 Z"
        fill="#f48e26"></path>
</svg>